<svg id="svg" version="1.1" xmlns="http://www.w3.org/2000/svg" xmlns:xlink="http://www.w3.org/1999/xlink" width="400" height="429.4234592445328" viewBox="0, 0, 400,429.4234592445328"><g id="svgg"><path id="path1" d="M201.745 14.600 C 201.618 14.930,201.234 15.200,200.891 15.200 C 200.547 15.200,200.387 15.320,200.534 15.467 C 200.852 15.786,202.800 14.810,202.800 14.332 C 202.800 13.763,201.987 13.969,201.745 14.600 M219.476 15.457 C 219.347 15.587,217.491 15.897,215.353 16.146 C 211.374 16.611,209.532 17.600,212.647 17.600 C 215.984 17.600,211.719 18.859,205.200 19.799 C 202.092 20.247,202.000 20.310,202.000 21.995 C 202.000 23.375,201.877 23.563,200.827 23.794 C 200.181 23.936,198.729 24.895,197.598 25.926 C 195.701 27.657,193.918 28.909,191.727 30.049 C 191.247 30.299,190.639 31.024,190.375 31.660 C 190.112 32.296,189.416 33.220,188.829 33.714 C 188.243 34.208,187.350 35.464,186.846 36.506 C 185.096 40.120,183.786 38.928,184.133 34.038 C 184.334 31.202,184.278 30.400,183.876 30.400 C 183.192 30.400,182.400 31.219,182.400 31.927 C 182.400 32.753,180.094 35.270,179.875 34.683 C 179.747 34.339,179.494 34.392,178.993 34.869 C 178.013 35.803,178.505 36.825,179.889 36.730 C 182.144 36.575,183.600 36.806,183.600 37.317 C 183.600 37.971,179.876 39.028,179.677 38.431 C 179.513 37.940,176.805 39.230,176.024 40.171 C 175.737 40.517,175.297 40.800,175.046 40.800 C 174.795 40.800,174.260 41.239,173.857 41.776 C 173.266 42.563,172.947 42.684,172.203 42.401 C 171.152 42.002,170.800 42.219,170.800 43.267 C 170.800 44.112,169.594 44.253,168.454 43.541 C 167.856 43.168,167.563 43.237,166.888 43.912 C 165.611 45.189,162.443 45.540,161.600 44.499 C 161.044 43.813,160.884 43.777,160.571 44.270 C 160.129 44.966,158.800 44.581,158.800 43.757 C 158.800 43.406,158.360 43.200,157.608 43.200 C 156.953 43.200,155.681 42.906,154.782 42.546 C 153.563 42.058,153.032 42.008,152.694 42.346 C 152.355 42.685,152.525 42.800,153.363 42.800 C 154.287 42.800,154.429 42.924,154.166 43.500 C 153.991 43.885,153.895 45.595,153.954 47.300 C 154.044 49.901,153.960 50.400,153.431 50.400 C 152.753 50.400,152.678 50.672,152.793 52.738 C 152.918 54.980,151.052 54.023,148.681 50.629 C 147.672 49.184,146.221 49.285,144.773 50.900 C 144.131 51.615,143.154 52.675,142.601 53.256 C 142.048 53.837,141.334 55.053,141.015 55.958 C 139.789 59.431,138.201 60.464,136.801 58.700 C 136.408 58.205,135.176 57.260,134.063 56.600 C 132.880 55.899,131.990 55.068,131.920 54.600 C 131.829 53.991,131.441 53.770,130.300 53.676 C 128.749 53.548,128.085 51.675,129.196 50.564 C 129.975 49.785,130.234 46.116,129.466 46.749 C 129.100 47.051,128.800 47.726,128.800 48.249 C 128.800 48.772,128.639 49.200,128.443 49.200 C 127.976 49.200,127.533 48.032,127.822 47.564 C 127.946 47.364,127.857 47.200,127.624 47.200 C 127.391 47.200,127.080 47.155,126.933 47.100 C 126.376 46.891,126.544 49.043,127.158 49.983 C 127.604 50.665,127.805 51.917,127.815 54.078 C 127.824 55.963,128.022 57.382,128.315 57.675 C 129.382 58.742,128.850 59.460,126.595 60.001 C 124.052 60.611,123.290 61.245,124.195 61.996 C 125.039 62.697,124.949 63.851,123.973 64.827 C 123.316 65.484,123.029 65.556,122.573 65.178 C 121.867 64.592,121.840 65.095,122.500 66.517 C 122.911 67.403,123.284 67.605,124.600 67.657 L 126.200 67.720 124.431 67.960 C 122.340 68.244,121.883 69.023,123.456 69.621 C 124.779 70.124,126.400 69.562,126.400 68.601 C 126.400 68.150,126.658 68.049,127.361 68.226 C 128.017 68.390,128.437 68.263,128.683 67.824 C 129.089 67.098,133.200 66.421,133.200 67.080 C 133.200 67.607,131.393 68.400,130.191 68.400 C 129.524 68.400,129.033 68.764,128.620 69.562 C 126.970 72.751,122.000 73.065,122.000 69.981 C 122.000 69.019,121.844 68.771,121.305 68.875 C 120.338 69.061,120.192 70.307,121.029 71.232 C 121.963 72.264,121.528 72.593,119.956 72.044 C 118.430 71.513,118.187 71.655,118.768 72.739 C 119.476 74.064,119.299 74.439,118.100 74.156 C 117.196 73.943,117.089 73.991,117.500 74.428 C 117.775 74.721,118.000 75.266,118.000 75.640 C 118.000 76.015,118.630 76.693,119.400 77.147 C 120.170 77.601,120.800 78.237,120.800 78.560 C 120.800 79.546,119.361 79.686,117.964 78.836 C 116.512 77.954,116.000 78.058,116.000 79.236 C 116.000 79.670,115.725 80.131,115.388 80.260 C 114.851 80.466,114.857 80.553,115.439 80.979 C 115.962 81.361,116.010 81.634,115.667 82.274 C 115.429 82.720,115.271 83.606,115.317 84.242 C 115.409 85.522,112.581 86.153,110.865 85.235 C 110.238 84.899,109.881 85.072,108.842 86.214 C 108.148 86.976,107.194 87.600,106.721 87.600 L 105.861 87.600 106.779 88.578 L 107.698 89.556 106.370 90.768 L 105.043 91.981 107.035 91.745 C 108.595 91.560,109.144 91.651,109.570 92.164 C 110.359 93.114,109.866 93.358,107.394 93.244 C 105.054 93.135,104.211 94.037,106.100 94.628 C 106.595 94.783,107.503 95.330,108.117 95.844 L 109.235 96.778 106.017 96.530 C 103.871 96.364,102.800 96.422,102.800 96.703 C 102.800 96.935,103.158 97.032,103.595 96.917 C 104.099 96.785,104.481 96.945,104.638 97.355 C 104.774 97.710,105.192 98.000,105.566 98.000 C 107.195 98.000,107.830 99.031,106.669 99.791 C 105.200 100.754,105.327 101.355,107.176 102.189 C 110.343 103.617,108.893 105.242,105.120 104.493 C 103.954 104.262,102.951 104.120,102.891 104.179 C 102.500 104.559,103.512 105.720,104.649 106.194 C 106.048 106.779,106.695 111.083,105.635 112.758 C 105.281 113.315,105.826 115.551,106.339 115.651 C 106.483 115.679,107.025 115.745,107.544 115.799 C 108.631 115.910,109.185 116.615,109.194 117.900 C 109.197 118.395,109.444 118.800,109.742 118.800 C 110.039 118.800,110.804 119.261,111.442 119.826 C 113.633 121.765,114.204 122.219,115.697 123.208 C 117.848 124.633,117.626 124.796,113.500 124.830 C 109.993 124.859,109.873 124.888,111.200 125.383 C 112.032 125.693,112.543 126.127,112.460 126.452 C 111.117 131.688,113.692 137.685,117.589 138.398 C 119.407 138.730,120.800 137.270,120.800 135.033 C 120.800 134.443,121.055 133.468,121.366 132.866 C 121.677 132.265,122.064 131.059,122.227 130.186 C 122.501 128.717,124.403 124.696,125.238 123.820 C 125.437 123.611,125.600 123.130,125.600 122.751 C 125.600 122.371,126.189 121.282,126.909 120.331 C 129.646 116.714,130.907 112.823,129.813 111.376 C 129.053 110.372,129.038 109.200,129.785 109.200 C 130.132 109.200,130.551 109.877,130.819 110.870 C 131.677 114.057,133.170 115.180,134.538 113.669 C 135.487 112.620,135.356 111.485,134.159 110.370 C 132.956 109.249,129.567 102.854,129.098 100.820 C 128.922 100.061,128.535 99.161,128.237 98.820 C 127.454 97.925,127.163 96.689,127.579 96.026 C 128.125 95.155,128.829 95.925,131.187 99.978 C 133.392 103.766,134.139 104.633,135.395 104.863 C 136.360 105.040,136.744 106.400,135.829 106.400 C 135.027 106.400,135.001 107.925,135.777 109.420 C 136.105 110.053,136.256 111.020,136.127 111.666 C 135.882 112.889,138.048 113.455,138.551 112.300 C 138.670 112.025,138.676 112.255,138.563 112.811 C 138.415 113.542,138.723 114.305,139.679 115.568 C 140.406 116.529,141.207 117.669,141.460 118.103 C 142.006 119.040,144.023 120.433,144.451 120.169 C 144.744 119.987,144.341 119.248,141.719 115.169 C 140.691 113.570,140.414 112.682,140.319 110.688 C 140.214 108.485,140.101 108.186,139.334 108.077 C 138.205 107.916,137.736 106.800,138.797 106.800 C 139.221 106.800,139.915 106.428,140.339 105.973 C 140.960 105.306,141.388 105.199,142.555 105.418 C 144.012 105.691,144.387 105.347,143.547 104.507 C 142.704 103.664,143.443 102.760,144.612 103.204 C 146.135 103.784,148.721 103.681,151.000 102.950 C 152.100 102.598,153.872 102.242,154.937 102.159 C 156.003 102.077,157.580 101.613,158.441 101.129 C 159.525 100.519,160.136 100.376,160.424 100.664 C 160.711 100.951,161.531 100.852,163.082 100.340 C 164.315 99.933,165.570 99.600,165.871 99.600 C 166.171 99.600,166.603 99.193,166.830 98.694 C 167.666 96.858,180.573 95.361,182.035 96.930 C 182.726 97.671,183.302 97.805,185.923 97.831 C 187.615 97.848,189.675 98.003,190.500 98.176 C 191.980 98.485,192.721 97.693,191.600 97.000 C 190.650 96.413,191.249 95.679,192.700 95.651 C 196.358 95.580,198.765 95.369,199.038 95.096 C 199.841 94.292,202.834 95.195,203.992 96.591 C 204.387 97.066,204.409 97.351,204.077 97.683 C 203.746 98.014,203.822 98.298,204.367 98.771 C 204.773 99.123,205.175 99.769,205.260 100.206 C 205.355 100.694,205.741 101.005,206.261 101.013 C 206.727 101.020,207.369 101.242,207.688 101.507 C 208.007 101.772,209.275 102.217,210.506 102.497 C 212.260 102.895,213.193 103.424,214.827 104.948 C 216.825 106.811,216.978 106.878,218.555 106.588 C 220.698 106.193,226.712 106.097,228.027 106.437 C 229.173 106.733,234.000 111.388,234.000 112.197 C 234.000 112.481,234.266 112.816,234.590 112.941 C 234.915 113.065,235.387 113.988,235.639 114.990 C 236.162 117.066,236.630 117.566,236.990 116.433 C 237.281 115.514,239.167 115.940,240.626 117.255 C 241.610 118.143,243.026 118.230,243.336 117.422 C 243.607 116.717,244.860 117.030,247.858 118.554 C 249.575 119.427,250.453 119.600,253.158 119.600 C 255.053 119.600,256.400 119.766,256.400 120.000 C 256.400 120.220,256.582 120.400,256.804 120.400 C 257.026 120.400,258.127 121.046,259.249 121.835 C 260.488 122.705,261.586 123.192,262.042 123.073 C 262.541 122.943,263.135 123.283,263.811 124.086 C 264.823 125.288,267.358 127.200,267.941 127.200 C 268.324 127.200,270.800 130.683,270.800 131.222 C 270.800 131.441,271.236 131.786,271.770 131.989 C 273.475 132.637,277.552 135.874,278.917 137.664 C 279.643 138.617,280.589 139.461,281.019 139.539 C 282.256 139.766,283.168 140.799,283.691 142.565 C 283.957 143.464,284.586 144.810,285.088 145.556 C 285.589 146.302,286.000 147.226,286.000 147.610 C 286.000 147.994,286.450 148.603,287.000 148.963 C 287.550 149.324,288.000 149.872,288.000 150.182 C 288.000 150.492,288.337 150.853,288.749 150.984 C 289.193 151.125,289.600 151.748,289.746 152.511 C 290.233 155.047,291.011 157.455,291.667 158.454 C 292.313 159.439,292.789 163.344,292.321 163.812 C 292.194 163.939,292.420 164.708,292.823 165.522 C 294.605 169.116,295.570 171.657,295.967 173.803 C 296.201 175.072,296.548 176.310,296.737 176.555 C 300.137 180.960,301.597 189.413,301.993 207.000 C 302.177 215.140,302.518 222.951,302.751 224.359 C 302.984 225.766,303.070 227.087,302.942 227.295 C 302.681 227.716,303.884 234.950,304.422 236.200 C 304.612 236.640,304.825 237.450,304.896 238.000 C 304.967 238.550,305.158 236.480,305.322 233.400 C 305.516 229.732,305.791 227.662,306.117 227.400 C 307.021 226.675,308.103 223.686,307.919 222.427 C 307.661 220.671,309.314 218.786,311.414 218.443 L 313.000 218.183 313.080 215.791 C 313.183 212.740,313.539 211.190,314.352 210.256 C 314.858 209.675,315.011 208.539,315.049 205.056 C 315.076 202.605,315.319 199.340,315.590 197.800 C 315.860 196.260,316.107 194.145,316.140 193.100 C 316.173 192.055,316.330 191.200,316.490 191.200 C 317.657 191.200,318.555 185.515,317.547 184.507 C 317.276 184.236,317.223 183.762,317.416 183.327 C 317.725 182.632,317.823 180.767,317.949 173.200 C 318.004 169.891,318.054 169.725,319.803 167.012 C 321.839 163.854,321.913 163.600,320.800 163.600 C 319.726 163.600,319.618 159.485,320.662 158.331 C 321.278 157.651,321.278 157.600,320.662 157.600 C 320.267 157.600,320.000 157.278,320.000 156.800 C 320.000 156.360,320.201 156.000,320.446 156.000 C 320.994 156.000,320.536 151.659,319.907 150.893 C 319.287 150.138,319.877 145.114,320.654 144.527 C 321.299 144.039,321.037 143.006,320.372 143.417 C 320.168 143.544,319.973 143.457,319.940 143.224 C 319.772 142.038,319.849 141.800,320.400 141.800 C 320.805 141.800,321.040 141.311,321.124 140.300 C 321.196 139.432,321.070 138.800,320.824 138.800 C 320.591 138.800,320.396 139.025,320.391 139.300 C 320.368 140.573,318.817 137.641,318.809 136.311 C 318.804 135.492,318.405 134.008,317.922 133.014 L 317.044 131.207 318.122 130.081 C 319.490 128.654,319.476 128.180,318.029 126.963 C 317.386 126.422,316.742 125.445,316.599 124.794 C 316.456 124.142,315.632 122.940,314.769 122.122 C 313.906 121.304,313.200 120.431,313.200 120.182 C 313.200 119.932,312.770 119.532,312.244 119.293 C 311.718 119.053,310.593 118.023,309.744 117.004 C 308.895 115.986,307.255 114.523,306.100 113.755 C 304.945 112.986,303.994 112.052,303.987 111.679 C 303.980 111.305,303.710 110.651,303.387 110.224 C 302.086 108.503,303.346 106.889,305.633 107.347 C 307.182 107.656,307.414 107.057,306.319 105.576 C 305.456 104.409,305.443 104.304,306.101 103.823 C 307.035 103.140,306.987 101.909,306.000 101.293 C 305.560 101.018,305.200 100.385,305.200 99.886 C 305.200 98.684,304.153 97.238,302.952 96.782 C 302.421 96.580,301.806 95.942,301.586 95.364 C 301.271 94.535,301.071 94.409,300.640 94.767 C 300.222 95.114,300.039 95.078,299.862 94.616 C 299.723 94.255,299.946 93.843,300.415 93.592 C 300.952 93.304,301.200 93.303,301.200 93.586 C 301.200 94.097,302.396 94.117,303.184 93.618 C 304.003 93.101,302.630 91.600,301.338 91.600 C 300.822 91.600,300.400 91.420,300.400 91.200 C 300.400 90.980,300.172 90.800,299.893 90.800 C 299.614 90.800,298.737 90.359,297.944 89.821 C 297.152 89.282,296.030 88.722,295.451 88.577 C 294.395 88.312,294.100 87.832,294.748 87.432 C 294.940 87.314,295.214 86.631,295.357 85.915 C 295.500 85.199,296.050 83.959,296.579 83.160 L 297.541 81.707 296.387 80.853 C 295.752 80.384,295.000 79.979,294.716 79.953 C 294.432 79.927,294.725 79.792,295.367 79.653 C 296.882 79.325,297.123 78.530,295.880 77.964 C 295.266 77.684,294.960 77.269,295.066 76.858 C 295.283 76.010,293.633 74.900,293.198 75.602 C 292.861 76.148,291.597 75.999,291.479 75.400 C 291.435 75.180,291.841 74.938,292.380 74.862 L 293.359 74.724 292.390 73.992 C 291.441 73.277,291.436 73.244,292.163 72.441 C 292.891 71.636,292.886 71.613,291.903 71.239 C 290.119 70.561,289.656 70.586,288.997 71.400 C 288.518 71.992,288.294 72.064,288.134 71.676 C 288.015 71.388,287.492 70.693,286.971 70.131 C 285.450 68.490,285.340 67.572,286.549 66.608 C 287.659 65.723,287.940 64.800,287.100 64.799 C 285.899 64.798,281.901 60.119,282.882 59.863 L 283.800 59.622 282.877 58.711 C 281.962 57.808,281.949 57.807,281.364 58.594 C 280.781 59.378,280.771 59.377,280.540 58.494 C 280.358 57.795,280.017 57.600,278.979 57.600 C 277.139 57.600,275.600 56.946,275.600 56.163 C 275.600 55.679,275.338 55.557,274.600 55.698 C 273.602 55.889,273.600 55.883,273.600 52.745 L 273.600 49.600 275.000 49.600 C 276.341 49.600,276.834 49.115,276.011 48.607 C 275.797 48.474,275.430 47.654,275.195 46.783 C 274.906 45.709,274.545 45.200,274.074 45.200 C 273.013 45.200,271.600 44.049,271.600 43.185 C 271.600 42.685,271.227 42.322,270.537 42.148 C 269.591 41.911,269.547 41.828,270.137 41.397 C 271.028 40.745,270.973 40.109,270.000 39.800 C 269.117 39.520,268.912 38.816,269.700 38.772 C 270.697 38.716,268.566 38.055,267.300 38.028 C 266.047 38.001,264.889 37.203,264.127 35.840 C 263.625 34.944,259.773 33.600,257.706 33.600 C 256.469 33.600,256.000 33.438,256.000 33.010 C 256.000 32.686,255.478 32.151,254.841 31.821 C 253.654 31.207,251.665 27.799,252.190 27.279 C 253.168 26.311,263.002 27.375,264.400 28.600 C 265.302 29.391,267.000 29.525,267.000 28.805 C 267.000 28.478,266.640 28.142,266.200 28.057 C 265.760 27.972,264.891 27.475,264.269 26.951 C 263.637 26.419,262.618 26.000,261.956 26.000 C 261.306 26.000,260.128 25.730,259.338 25.400 C 258.477 25.040,256.650 24.800,254.775 24.800 C 253.055 24.800,251.549 24.640,251.428 24.445 C 251.031 23.803,252.348 23.100,253.437 23.374 C 255.177 23.810,258.062 23.216,257.915 22.452 C 257.753 21.610,252.724 21.241,245.919 21.572 C 243.923 21.668,243.404 21.525,241.769 20.421 C 239.645 18.988,237.848 18.497,237.074 19.139 C 236.684 19.462,236.321 19.420,235.691 18.979 C 233.915 17.735,227.466 15.999,223.852 15.792 C 221.901 15.680,220.171 15.506,220.008 15.405 C 219.845 15.304,219.606 15.328,219.476 15.457 M246.348 27.737 C 246.836 28.325,245.450 29.200,244.030 29.200 C 242.982 29.200,242.289 28.271,242.890 27.670 C 243.529 27.031,245.798 27.075,246.348 27.737 M128.480 32.880 C 127.972 33.388,127.823 34.400,128.256 34.400 C 128.566 34.400,129.570 33.119,129.587 32.700 C 129.607 32.245,129.019 32.341,128.480 32.880 M134.052 34.537 C 133.767 34.880,133.602 35.485,133.684 35.881 C 133.817 36.512,133.897 36.487,134.343 35.678 C 134.979 34.525,134.763 33.680,134.052 34.537 M129.400 35.841 C 128.890 36.234,128.129 36.383,127.300 36.254 C 126.101 36.066,126.000 36.135,126.000 37.145 C 126.000 38.160,126.101 38.228,127.400 38.076 C 128.170 37.986,128.800 37.752,128.800 37.556 C 128.800 37.360,129.049 37.200,129.353 37.200 C 129.658 37.200,129.993 36.750,130.098 36.200 C 130.203 35.650,130.269 35.206,130.245 35.213 C 130.220 35.220,129.840 35.503,129.400 35.841 M263.528 37.131 C 263.667 38.077,263.221 38.261,262.511 37.551 C 261.973 37.013,262.311 35.904,262.949 36.114 C 263.197 36.196,263.458 36.654,263.528 37.131 M183.082 41.700 C 182.987 42.195,182.909 41.790,182.909 40.800 C 182.909 39.810,182.987 39.405,183.082 39.900 C 183.178 40.395,183.178 41.205,183.082 41.700 M130.000 40.976 C 130.000 41.513,129.828 42.059,129.617 42.189 C 129.173 42.464,129.515 43.600,130.043 43.600 C 130.239 43.600,130.400 43.234,130.400 42.786 C 130.400 42.338,130.691 41.528,131.046 40.986 C 131.662 40.045,131.653 40.000,130.846 40.000 C 130.216 40.000,130.000 40.249,130.000 40.976 M273.375 40.840 C 273.253 41.038,274.018 41.221,275.076 41.247 C 277.003 41.295,279.928 41.856,278.800 41.962 C 278.470 41.992,277.773 42.346,277.251 42.747 C 276.080 43.648,276.410 43.811,280.230 44.213 L 283.000 44.505 282.238 43.653 C 281.819 43.184,281.054 42.800,280.538 42.800 C 279.177 42.800,279.386 42.073,280.789 41.925 C 281.717 41.828,281.898 41.672,281.614 41.217 C 281.197 40.549,273.765 40.210,273.375 40.840 M276.984 46.027 C 276.592 46.660,277.948 47.505,280.120 47.980 C 284.062 48.843,284.065 48.103,280.126 46.463 C 277.773 45.484,277.355 45.426,276.984 46.027 M279.820 50.736 C 280.029 50.921,280.830 51.309,281.600 51.598 C 284.958 52.861,287.062 53.983,287.897 54.955 C 288.865 56.082,289.398 56.251,289.821 55.565 C 290.126 55.073,287.704 52.400,286.952 52.400 C 286.682 52.400,285.927 51.950,285.273 51.400 C 284.128 50.436,278.739 49.780,279.820 50.736 M271.523 60.407 C 276.040 60.807,279.535 61.934,278.991 62.815 C 278.655 63.358,276.579 63.295,271.233 62.582 C 268.685 62.242,265.624 61.837,264.432 61.682 C 261.951 61.359,261.269 60.538,263.276 60.291 C 265.736 59.988,266.987 60.006,271.523 60.407 M132.600 72.800 C 132.747 73.038,132.271 73.200,131.424 73.200 C 130.641 73.200,130.000 73.020,130.000 72.800 C 130.000 72.580,130.529 72.400,131.176 72.400 C 131.823 72.400,132.464 72.580,132.600 72.800 M297.200 76.336 C 297.200 76.556,297.749 76.857,298.419 77.004 C 299.090 77.151,299.853 77.616,300.115 78.036 C 300.378 78.456,300.819 78.800,301.096 78.800 C 301.920 78.800,301.669 77.737,300.694 77.098 C 299.500 76.316,297.200 75.815,297.200 76.336 M303.800 80.800 C 303.936 81.020,304.307 81.200,304.624 81.200 C 304.941 81.200,305.200 81.020,305.200 80.800 C 305.200 80.580,304.829 80.400,304.376 80.400 C 303.923 80.400,303.664 80.580,303.800 80.800 M135.200 91.728 C 135.200 91.992,135.650 92.693,136.200 93.287 C 137.320 94.494,137.480 95.200,136.636 95.200 C 135.345 95.200,133.438 91.896,134.256 91.078 C 134.605 90.729,135.200 91.138,135.200 91.728 M140.207 92.299 C 141.630 93.280,141.706 93.411,140.917 93.524 C 139.968 93.661,137.029 91.905,137.469 91.465 C 137.946 90.988,138.591 91.184,140.207 92.299 M138.708 97.125 C 138.948 97.845,138.122 97.694,137.843 96.967 C 137.693 96.577,137.782 96.394,138.075 96.492 C 138.336 96.579,138.621 96.864,138.708 97.125 M142.800 101.029 C 142.800 101.402,142.528 101.606,142.133 101.529 C 141.130 101.335,140.992 100.400,141.967 100.400 C 142.458 100.400,142.800 100.658,142.800 101.029 M307.200 104.213 C 307.200 104.536,307.470 104.800,307.800 104.800 C 308.130 104.800,308.400 104.639,308.400 104.443 C 308.400 104.246,308.130 103.982,307.800 103.855 C 307.435 103.715,307.200 103.855,307.200 104.213 M86.000 135.200 C 86.000 135.969,86.782 136.284,87.330 135.737 C 87.633 135.434,86.876 134.400,86.351 134.400 C 86.158 134.400,86.000 134.760,86.000 135.200 M109.348 138.100 C 109.481 138.595,109.592 139.469,109.595 140.042 C 109.598 140.614,110.050 141.569,110.600 142.162 C 111.610 143.252,111.787 143.958,111.630 146.272 C 111.564 147.248,111.781 147.700,112.559 148.210 C 113.118 148.576,114.108 149.680,114.759 150.664 C 116.233 152.889,116.589 152.432,116.915 147.900 C 117.096 145.381,117.032 144.800,116.569 144.800 C 116.216 144.800,115.998 144.382,115.994 143.700 C 115.988 142.583,112.615 138.400,111.721 138.400 C 111.488 138.400,111.074 138.130,110.800 137.800 C 110.006 136.844,109.063 137.038,109.348 138.100 M86.485 143.814 C 86.097 144.254,86.079 144.600,86.412 145.223 C 87.024 146.365,87.775 145.990,87.925 144.469 C 88.062 143.089,87.393 142.785,86.485 143.814 M106.000 151.540 C 106.000 151.727,106.213 152.490,106.472 153.236 L 106.945 154.591 107.454 153.395 C 108.204 151.637,108.113 151.200,107.000 151.200 C 106.450 151.200,106.000 151.353,106.000 151.540 M100.667 152.267 C 100.078 152.855,100.457 153.898,101.419 154.336 C 102.862 154.993,103.200 154.919,103.200 153.944 C 103.200 152.684,101.425 151.509,100.667 152.267 M87.867 170.667 C 87.425 171.109,87.567 173.007,88.080 173.520 C 89.399 174.839,90.305 173.401,89.285 171.609 C 88.581 170.372,88.329 170.204,87.867 170.667 M98.877 182.987 C 98.905 183.734,98.612 184.827,98.227 185.415 C 97.738 186.161,97.602 186.884,97.776 187.811 C 97.913 188.540,97.851 189.245,97.639 189.376 C 97.426 189.507,97.354 190.241,97.479 191.007 C 97.660 192.127,97.575 192.400,97.044 192.400 C 96.680 192.400,96.185 192.895,95.943 193.500 C 95.700 194.105,95.164 195.255,94.750 196.056 C 94.337 196.857,94.010 197.937,94.025 198.456 C 94.039 198.975,94.085 201.136,94.126 203.257 C 94.184 206.295,94.349 207.278,94.900 207.888 C 95.285 208.314,95.606 209.279,95.613 210.031 C 95.629 211.805,96.664 213.372,96.868 211.933 C 96.941 211.420,97.270 211.000,97.600 211.000 C 98.406 211.000,99.172 209.999,99.187 208.924 C 99.194 208.442,99.380 207.936,99.600 207.800 C 99.820 207.664,100.000 206.438,100.000 205.075 C 100.000 203.712,100.360 201.339,100.800 199.800 C 102.095 195.272,101.824 193.033,100.179 194.678 C 99.388 195.469,99.451 193.928,100.363 190.200 C 102.204 182.671,102.225 183.065,99.913 182.088 C 98.849 181.639,98.827 181.658,98.877 182.987 M253.400 193.395 C 251.900 194.106,243.790 194.232,243.370 193.551 C 242.656 192.396,234.275 193.977,233.400 195.431 C 231.389 198.776,231.162 198.898,228.291 198.180 C 227.435 197.967,226.809 198.162,225.543 199.039 L 223.904 200.175 222.991 199.030 C 221.887 197.645,221.009 197.854,220.663 199.586 L 220.412 200.841 218.009 200.569 C 215.436 200.278,214.400 200.689,214.400 202.000 C 214.400 202.386,214.118 202.936,213.772 203.223 C 213.289 203.624,213.204 204.174,213.402 205.614 C 213.604 207.085,213.513 207.629,212.976 208.167 C 212.447 208.696,212.384 209.050,212.696 209.725 C 213.710 211.920,214.000 212.942,214.000 214.327 C 214.000 215.146,214.367 217.139,214.815 218.757 C 215.495 221.211,215.553 221.930,215.165 223.105 C 214.100 226.333,215.828 232.815,217.997 233.728 C 218.549 233.960,219.575 234.681,220.277 235.331 C 221.541 236.501,221.569 236.506,222.938 235.856 C 223.704 235.493,225.311 235.200,226.541 235.200 C 230.164 235.200,233.129 234.444,231.942 233.823 C 231.424 233.552,230.820 233.460,230.600 233.618 C 229.951 234.086,227.600 233.565,227.600 232.955 C 227.600 232.589,228.071 232.400,228.986 232.400 C 229.946 232.400,230.499 232.163,230.786 231.627 C 231.013 231.202,231.523 230.751,231.920 230.625 C 232.316 230.500,232.860 229.812,233.128 229.098 C 234.535 225.356,235.851 225.359,237.705 229.107 C 239.545 232.826,240.453 233.316,245.000 233.044 C 250.717 232.702,254.400 231.290,254.400 229.440 C 254.400 228.922,254.660 227.875,254.978 227.114 C 255.296 226.354,255.521 224.897,255.478 223.877 L 255.400 222.022 257.000 222.265 C 259.718 222.676,262.067 223.622,263.350 224.822 C 264.568 225.959,264.617 225.968,268.478 225.770 C 271.842 225.597,272.607 225.681,274.063 226.385 C 277.660 228.122,280.519 227.153,278.583 224.853 C 278.042 224.210,277.600 223.537,277.600 223.357 C 277.600 222.895,274.313 219.600,273.852 219.600 C 273.642 219.600,272.616 219.052,271.571 218.382 C 270.527 217.712,268.801 217.007,267.736 216.817 C 266.671 216.626,264.720 216.279,263.400 216.045 C 258.295 215.140,251.249 214.390,247.900 214.395 C 243.909 214.401,243.782 214.251,246.049 212.203 C 247.538 210.858,247.851 210.738,249.275 210.966 C 250.499 211.161,251.074 211.043,251.847 210.434 C 253.045 209.492,257.042 208.166,259.800 207.794 C 260.900 207.646,262.036 207.330,262.325 207.092 C 263.106 206.450,266.671 205.225,269.409 204.658 C 272.288 204.062,272.800 203.785,272.800 202.820 C 272.800 202.371,273.188 201.989,273.800 201.836 C 275.149 201.497,275.058 200.693,273.467 198.901 C 272.733 198.076,272.022 197.093,271.886 196.717 C 271.440 195.488,268.706 194.112,266.186 193.850 C 256.744 192.866,254.672 192.793,253.400 193.395 M157.600 202.461 C 156.830 202.670,154.977 202.829,153.481 202.815 C 146.852 202.755,140.853 204.803,141.371 206.951 C 141.470 207.364,141.272 208.129,140.930 208.651 C 140.581 209.183,140.492 209.600,140.727 209.600 C 140.958 209.600,141.253 209.936,141.383 210.348 C 141.556 210.893,142.294 211.225,144.110 211.576 C 151.115 212.930,157.485 215.895,155.669 216.956 C 152.572 218.765,151.169 219.383,149.600 219.629 C 144.359 220.450,137.215 223.994,132.839 227.945 C 127.510 232.754,131.968 233.552,141.000 229.404 C 142.100 228.899,143.697 228.166,144.549 227.774 C 145.819 227.191,146.317 227.144,147.303 227.516 C 148.164 227.841,148.734 227.849,149.303 227.545 C 150.179 227.076,152.101 228.163,152.305 229.242 C 152.434 229.922,150.283 231.200,149.010 231.200 C 148.502 231.200,147.976 231.485,147.843 231.833 C 147.510 232.701,147.499 232.680,148.425 232.922 C 148.878 233.041,149.201 233.377,149.142 233.669 C 148.575 236.465,150.333 237.310,156.563 237.238 C 162.632 237.168,163.324 236.870,163.625 234.196 C 164.271 228.479,168.038 227.429,170.845 232.186 C 171.292 232.944,172.005 233.675,172.429 233.809 C 173.516 234.154,173.379 234.509,171.891 235.200 C 167.814 237.095,171.224 238.895,177.470 238.144 L 179.539 237.896 180.815 234.357 C 181.698 231.909,182.010 230.477,181.827 229.709 C 181.446 228.114,179.536 224.400,179.096 224.400 C 178.155 224.400,176.441 222.653,175.564 220.800 C 174.655 218.881,174.525 218.774,173.300 218.938 C 172.373 219.062,172.000 218.952,172.000 218.556 C 172.000 218.250,172.258 218.000,172.573 218.000 C 172.888 218.000,173.260 217.640,173.400 217.200 C 173.600 216.569,174.007 216.399,175.327 216.396 C 178.029 216.388,180.000 215.947,180.000 215.348 C 180.000 215.046,180.267 214.800,180.592 214.800 C 181.154 214.800,181.480 213.997,181.651 212.200 C 181.775 210.897,181.156 209.200,180.557 209.200 C 180.250 209.200,180.000 209.020,180.000 208.800 C 180.000 208.580,179.685 208.397,179.300 208.393 C 178.915 208.389,177.808 207.849,176.840 207.193 C 175.872 206.537,174.675 206.000,174.180 206.000 C 173.686 206.000,172.228 205.441,170.941 204.759 C 169.653 204.076,167.790 203.443,166.800 203.351 C 165.810 203.260,164.321 202.918,163.492 202.592 C 161.816 201.934,159.718 201.887,157.600 202.461 M314.060 204.315 C 313.694 205.316,313.662 205.261,313.644 203.600 C 313.628 202.167,313.709 201.946,314.040 202.515 C 314.321 202.997,314.327 203.584,314.060 204.315 M263.600 219.200 C 263.600 219.701,263.176 219.701,262.400 219.200 C 261.915 218.886,261.972 218.811,262.700 218.806 C 263.195 218.803,263.600 218.980,263.600 219.200 M152.562 221.155 C 153.454 221.505,152.025 223.200,150.838 223.200 C 150.502 223.200,149.501 223.447,148.613 223.749 C 147.726 224.052,146.280 224.526,145.400 224.805 C 144.520 225.083,143.144 225.826,142.342 226.455 C 141.541 227.085,140.669 227.600,140.404 227.600 C 140.140 227.600,139.439 227.945,138.847 228.366 C 136.601 229.966,132.000 231.737,132.000 231.001 C 132.000 230.640,136.978 225.751,138.200 224.913 C 139.288 224.167,143.540 222.335,146.600 221.293 C 148.018 220.811,151.480 220.731,152.562 221.155 M242.919 224.283 C 243.536 224.646,242.291 225.600,241.200 225.600 C 239.829 225.600,239.006 224.754,239.701 224.059 C 240.139 223.621,242.021 223.752,242.919 224.283 M252.000 224.200 C 252.000 224.956,251.262 224.961,249.546 224.216 L 248.200 223.631 250.100 223.616 C 251.529 223.604,252.000 223.749,252.000 224.200 M224.538 237.700 C 224.284 238.112,225.091 238.784,225.851 238.794 C 226.099 238.797,226.526 239.070,226.800 239.400 C 227.074 239.730,227.593 240.000,227.954 240.000 C 228.315 240.000,228.788 240.393,229.005 240.874 C 229.589 242.168,230.400 242.260,230.400 241.033 C 230.400 240.465,230.220 240.000,230.000 240.000 C 229.780 240.000,229.600 239.741,229.600 239.424 C 229.600 238.452,225.034 236.897,224.538 237.700 M231.071 238.662 C 230.464 239.270,230.866 239.954,231.900 240.073 C 233.184 240.221,233.603 241.568,232.619 242.384 C 231.689 243.156,231.851 243.508,233.534 244.366 C 235.029 245.129,236.096 245.237,236.651 244.682 C 236.954 244.379,234.984 242.400,234.379 242.400 C 233.807 242.400,233.924 241.761,234.600 241.200 C 235.655 240.325,235.325 239.289,233.900 239.002 C 233.185 238.858,232.317 238.662,231.971 238.566 C 231.625 238.470,231.220 238.513,231.071 238.662 M216.194 287.978 C 215.750 288.158,214.355 289.305,213.093 290.527 C 211.832 291.749,210.170 292.976,209.401 293.254 C 207.896 293.798,207.330 294.788,207.920 295.842 C 208.865 297.532,205.884 300.558,202.548 301.296 C 200.617 301.723,200.177 301.974,200.072 302.708 C 200.002 303.198,199.789 303.600,199.599 303.600 C 199.410 303.600,198.859 304.155,198.376 304.833 L 197.498 306.066 198.359 307.229 C 199.145 308.294,199.184 308.606,198.812 310.896 C 198.589 312.273,198.405 313.515,198.403 313.657 C 198.401 313.798,199.139 314.209,200.042 314.570 C 201.924 315.323,205.200 313.973,205.200 312.445 C 205.200 311.406,206.477 310.402,208.145 310.132 C 209.425 309.924,209.700 309.654,210.572 307.749 C 211.329 306.096,211.760 305.600,212.439 305.600 C 212.925 305.600,214.305 305.135,215.506 304.567 L 217.689 303.534 217.522 300.914 C 217.387 298.791,217.183 298.153,216.447 297.558 C 215.948 297.153,215.639 296.661,215.761 296.464 C 216.088 295.934,219.146 295.530,219.848 295.923 C 220.449 296.259,222.710 295.793,224.889 294.883 C 226.858 294.061,226.874 290.756,224.918 288.714 C 223.802 287.549,218.379 287.091,216.194 287.978 M361.200 288.400 C 360.870 288.613,360.015 288.791,359.300 288.794 C 358.414 288.798,358.000 288.991,358.000 289.400 C 358.000 290.057,358.622 290.211,358.974 289.641 C 359.211 289.259,363.716 289.377,364.373 289.783 C 364.861 290.085,366.800 289.622,366.800 289.204 C 366.800 288.420,362.193 287.758,361.200 288.400 M185.500 290.562 C 183.145 292.702,184.414 294.205,188.561 294.189 C 191.939 294.175,194.400 293.440,194.400 292.444 C 194.400 290.092,187.600 288.654,185.500 290.562 M208.800 303.200 C 208.800 303.420,208.440 303.600,208.000 303.600 C 207.560 303.600,207.200 303.420,207.200 303.200 C 207.200 302.980,207.560 302.800,208.000 302.800 C 208.440 302.800,208.800 302.980,208.800 303.200 M316.992 303.572 C 315.099 304.026,313.676 305.151,313.248 306.533 C 311.765 311.321,310.586 322.088,308.598 349.000 C 308.289 353.180,307.828 358.095,307.574 359.922 C 306.999 364.043,306.632 363.820,312.261 362.771 C 317.664 361.764,319.766 361.422,324.000 360.857 C 325.650 360.637,327.270 360.360,327.600 360.243 C 330.964 359.042,350.985 357.876,380.000 357.190 C 389.570 356.964,397.707 356.684,398.081 356.569 C 399.708 356.066,400.000 354.329,400.000 345.155 L 400.000 336.432 398.907 335.419 C 397.592 334.199,389.293 334.174,386.976 335.382 C 386.329 335.719,385.316 335.996,384.724 335.998 C 384.132 335.999,383.536 336.180,383.400 336.400 C 383.263 336.622,381.424 336.802,379.276 336.804 C 377.067 336.807,374.587 337.056,373.508 337.383 C 372.468 337.698,370.218 338.064,368.508 338.196 C 366.799 338.327,364.140 338.597,362.600 338.796 C 361.060 338.994,358.013 339.276,355.830 339.421 C 353.646 339.566,351.145 339.937,350.273 340.245 C 346.557 341.556,340.800 340.942,340.800 339.235 C 340.800 337.910,341.874 337.546,348.681 336.561 C 359.132 335.049,361.856 334.602,371.415 332.836 C 373.843 332.388,377.623 331.761,379.815 331.443 C 386.478 330.477,394.129 329.169,395.428 328.774 C 396.104 328.568,397.409 328.400,398.328 328.400 C 399.867 328.400,400.000 328.316,400.000 327.348 L 400.000 326.297 397.100 326.574 C 394.129 326.857,387.413 327.914,375.400 329.989 C 369.027 331.090,362.190 332.185,355.200 333.225 C 353.550 333.470,350.400 333.951,348.200 334.293 C 343.009 335.099,337.200 335.391,337.200 334.845 C 337.200 334.225,334.007 332.498,332.277 332.181 C 330.454 331.847,329.840 331.019,329.030 327.795 C 327.991 323.658,327.903 323.101,327.602 318.800 C 327.441 316.490,327.091 314.060,326.825 313.400 C 326.316 312.137,326.192 306.659,326.643 305.361 C 326.891 304.647,326.870 304.649,326.291 305.393 C 325.692 306.164,325.623 306.167,323.738 305.491 C 322.672 305.109,321.397 304.797,320.903 304.798 C 320.410 304.799,319.782 304.440,319.507 304.000 C 318.973 303.145,318.854 303.125,316.992 303.572 M220.537 308.415 C 220.391 309.147,219.896 309.838,219.293 310.154 C 218.294 310.678,218.294 310.679,219.176 310.910 C 220.364 311.220,221.600 309.940,221.600 308.400 C 221.600 306.838,220.850 306.849,220.537 308.415 M216.978 312.835 C 216.831 313.074,216.910 313.470,217.155 313.715 C 217.482 314.042,217.600 313.926,217.600 313.280 C 217.600 312.314,217.392 312.165,216.978 312.835 M239.833 315.897 C 238.984 316.341,238.483 316.395,238.000 316.093 C 236.770 315.325,236.981 319.513,238.221 320.488 C 238.760 320.912,239.200 321.521,239.200 321.842 C 239.200 322.163,239.470 322.529,239.800 322.655 C 241.718 323.391,239.401 324.792,235.764 325.096 C 232.582 325.362,218.774 323.725,217.485 322.929 C 217.312 322.822,216.495 323.087,215.669 323.517 C 214.844 323.947,213.605 324.423,212.918 324.574 C 212.230 324.725,211.575 325.088,211.463 325.380 C 211.351 325.672,210.391 326.221,209.330 326.600 C 206.565 327.588,204.800 328.518,204.798 328.991 C 204.796 329.239,203.217 329.421,200.793 329.453 C 197.763 329.493,196.330 329.702,194.895 330.312 C 193.704 330.819,191.776 331.181,189.704 331.288 C 183.804 331.593,184.717 332.630,191.200 332.988 C 193.730 333.128,197.420 333.374,199.400 333.536 C 202.975 333.828,209.364 333.584,217.800 332.833 C 223.206 332.353,229.554 332.533,230.806 333.203 C 231.476 333.562,232.482 333.610,234.370 333.376 C 240.850 332.571,248.100 333.383,251.318 335.273 C 252.372 335.893,253.780 336.400,254.446 336.400 L 255.658 336.400 255.391 334.268 C 255.137 332.231,255.184 332.077,256.462 330.794 C 257.198 330.055,257.760 329.319,257.711 329.158 C 257.662 328.997,257.419 326.736,257.170 324.133 C 256.621 318.379,256.830 318.607,252.076 318.568 C 246.383 318.520,243.446 317.998,243.262 317.000 C 242.920 315.150,241.889 314.819,239.833 315.897 M162.600 331.652 C 161.281 332.389,160.800 333.267,160.800 334.934 L 160.800 336.515 163.584 336.256 C 165.115 336.114,166.780 335.838,167.284 335.644 C 167.788 335.450,169.355 335.077,170.767 334.816 C 173.663 334.280,177.016 332.854,176.524 332.367 C 175.471 331.324,164.221 330.746,162.600 331.652 M283.097 345.558 C 282.011 346.849,281.959 347.600,282.956 347.600 C 283.623 347.600,284.517 345.904,284.339 344.977 C 284.221 344.365,284.022 344.458,283.097 345.558 M281.017 348.372 C 280.891 348.577,280.970 348.858,281.193 348.996 C 281.671 349.291,282.400 348.917,282.400 348.376 C 282.400 347.890,281.317 347.887,281.017 348.372 M276.800 349.224 C 276.800 349.677,276.980 349.936,277.200 349.800 C 277.420 349.664,277.600 349.293,277.600 348.976 C 277.600 348.659,277.420 348.400,277.200 348.400 C 276.980 348.400,276.800 348.771,276.800 349.224 M211.000 350.415 C 209.900 350.568,207.560 351.060,205.800 351.509 C 204.040 351.957,201.790 352.477,200.800 352.664 C 198.196 353.155,198.345 354.188,201.200 355.419 C 204.098 356.669,206.970 356.664,212.078 355.400 C 214.300 354.850,216.452 354.400,216.860 354.400 C 217.318 354.400,217.600 354.113,217.600 353.647 C 217.600 353.230,217.957 352.800,218.400 352.684 C 219.289 352.452,219.519 350.873,218.700 350.621 C 217.592 350.280,212.878 350.154,211.000 350.415 M278.429 351.454 C 277.973 352.034,277.596 352.709,277.591 352.954 C 277.586 353.199,277.230 353.850,276.800 354.400 L 276.018 355.400 276.009 354.500 C 276.004 354.005,275.820 353.600,275.600 353.600 C 275.380 353.600,275.200 353.777,275.200 353.992 C 275.200 354.208,274.705 354.507,274.100 354.657 C 273.495 354.807,272.765 355.260,272.478 355.663 C 272.191 356.067,271.246 356.511,270.378 356.650 C 269.055 356.861,268.800 357.056,268.800 357.851 C 268.800 359.009,269.354 359.039,271.506 358.000 C 273.507 357.033,274.314 356.998,275.243 357.839 C 276.234 358.736,276.565 358.402,278.389 354.669 C 280.451 350.449,280.471 348.859,278.429 351.454 M269.419 359.838 C 268.638 360.619,268.631 361.362,269.400 362.000 C 270.218 362.679,270.189 365.153,269.360 365.471 C 268.553 365.780,267.966 364.873,268.248 363.753 C 268.569 362.473,266.569 361.200,264.238 361.200 C 262.553 361.200,262.400 361.282,262.400 362.181 C 262.400 362.960,262.028 363.327,260.600 363.959 C 259.137 364.606,258.800 364.948,258.800 365.787 C 258.800 366.951,257.462 367.698,256.043 367.327 C 255.442 367.170,254.729 367.532,253.557 368.592 C 252.366 369.667,251.651 370.027,250.965 369.895 C 250.292 369.767,249.949 369.930,249.782 370.457 C 249.652 370.866,249.288 371.200,248.973 371.200 C 248.219 371.200,248.239 372.169,249.008 372.806 C 249.503 373.217,249.749 373.189,250.339 372.655 C 251.243 371.837,252.640 371.806,252.944 372.597 C 253.115 373.044,252.773 373.259,251.586 373.449 C 250.714 373.588,250.000 373.857,250.000 374.046 C 250.000 374.235,249.370 374.652,248.600 374.974 C 247.698 375.351,247.200 375.829,247.200 376.318 C 247.200 378.276,244.177 379.059,243.405 377.300 C 242.729 375.758,236.548 377.849,236.018 379.800 C 235.635 381.208,234.918 382.125,234.149 382.193 C 232.020 382.380,230.800 383.629,230.800 385.619 C 230.800 386.048,230.552 386.400,230.249 386.400 C 229.946 386.400,229.467 386.678,229.185 387.018 C 228.848 387.425,228.311 387.556,227.614 387.403 C 226.871 387.240,226.126 387.462,225.118 388.146 C 224.072 388.856,223.561 389.001,223.240 388.680 C 222.582 388.022,222.695 386.400,223.400 386.400 C 223.730 386.400,224.000 386.111,224.000 385.757 C 224.000 385.363,223.778 385.200,223.425 385.335 C 222.843 385.559,220.709 386.115,218.700 386.568 C 217.317 386.879,217.153 388.963,218.400 390.400 C 219.579 391.760,219.418 392.400,217.896 392.400 C 217.026 392.400,216.426 392.134,216.093 391.600 C 215.818 391.160,215.338 390.800,215.026 390.800 C 214.349 390.800,212.800 388.933,212.800 388.117 C 212.800 385.603,205.323 385.360,202.044 387.768 C 200.971 388.556,199.892 389.200,199.646 389.200 C 199.401 389.200,199.200 389.379,199.200 389.597 C 199.200 390.841,196.681 392.204,193.975 392.425 C 190.798 392.684,190.412 392.908,191.353 393.948 C 192.014 394.679,191.928 394.706,188.414 394.874 C 184.360 395.067,183.371 395.554,184.739 396.684 C 185.521 397.330,185.562 397.554,185.165 398.970 C 184.662 400.760,185.637 401.972,187.600 401.993 C 188.673 402.005,191.294 402.625,192.600 403.175 C 194.347 403.911,197.056 404.475,200.542 404.827 C 206.090 405.389,206.522 405.520,206.204 406.540 C 205.461 408.920,205.491 409.277,206.515 410.226 C 207.761 411.382,208.239 412.721,207.624 413.336 C 206.462 414.498,199.429 415.568,195.469 415.185 C 192.968 414.943,189.600 415.400,189.600 415.982 C 189.600 416.413,191.696 416.805,192.656 416.554 C 193.082 416.442,194.774 416.705,196.416 417.137 C 204.073 419.156,221.355 418.565,224.400 416.181 C 225.173 415.576,230.741 414.035,233.660 413.619 C 234.903 413.442,236.118 413.174,236.360 413.025 C 236.632 412.857,236.800 413.106,236.799 413.676 C 236.799 414.423,236.562 414.617,235.564 414.687 C 233.493 414.832,231.124 416.066,231.339 416.887 C 231.490 417.466,231.273 417.600,230.181 417.600 C 228.041 417.600,226.954 418.308,226.435 420.041 C 226.178 420.898,225.720 421.600,225.417 421.600 C 225.114 421.600,224.775 421.825,224.664 422.100 C 224.503 422.497,224.386 422.495,224.100 422.089 C 223.361 421.042,211.827 421.609,211.672 422.700 C 211.602 423.195,211.377 423.600,211.172 423.600 C 210.967 423.600,210.800 423.774,210.800 423.987 C 210.800 424.209,212.814 424.423,215.500 424.487 C 220.661 424.611,221.247 425.036,218.963 426.998 C 216.481 429.131,216.852 429.200,230.800 429.200 C 240.489 429.200,243.600 429.083,243.600 428.720 C 243.600 428.347,243.707 428.347,244.080 428.720 C 244.403 429.043,246.232 429.200,249.686 429.200 L 254.811 429.200 256.027 427.900 C 256.696 427.185,257.572 425.870,257.974 424.977 C 258.376 424.085,259.460 422.645,260.383 421.777 C 261.305 420.910,262.568 419.705,263.190 419.100 C 264.962 417.376,266.693 417.557,267.005 419.500 C 267.138 420.325,267.481 421.647,267.767 422.438 C 268.212 423.669,268.200 423.930,267.686 424.254 C 265.411 425.690,267.696 427.672,270.349 426.564 C 272.254 425.767,272.514 425.855,271.741 427.034 C 271.261 427.767,270.804 428.018,270.169 427.896 C 269.226 427.716,262.846 428.620,262.480 428.986 C 262.363 429.104,265.251 429.200,268.899 429.200 L 275.531 429.200 275.240 428.112 C 275.057 427.429,274.598 426.941,274.004 426.801 C 272.678 426.488,272.546 425.679,273.772 425.371 C 276.140 424.777,274.744 423.701,271.014 423.246 C 269.320 423.039,268.980 422.857,268.872 422.100 C 268.663 420.630,275.833 420.710,276.394 422.184 C 277.248 424.430,279.600 425.675,279.600 423.880 C 279.600 423.374,279.765 422.789,279.967 422.580 C 281.151 421.352,282.325 418.400,281.628 418.400 C 277.966 418.400,277.082 415.458,280.500 414.646 C 281.465 414.417,281.600 414.195,281.600 412.842 C 281.600 410.503,282.038 408.800,282.640 408.800 C 284.014 408.800,284.826 405.430,283.962 403.316 C 283.510 402.212,283.530 401.836,284.105 400.631 C 284.566 399.663,284.638 399.147,284.337 398.961 C 284.058 398.789,283.969 397.639,284.090 395.765 C 284.226 393.637,284.140 392.786,283.773 392.645 C 283.434 392.515,283.338 391.941,283.479 390.891 C 283.613 389.885,283.464 388.897,283.058 388.112 C 282.467 386.970,282.482 386.783,283.291 385.147 C 283.916 383.881,284.235 382.243,284.448 379.200 C 284.609 376.890,284.860 374.538,285.003 373.974 C 285.346 372.630,284.317 369.307,282.473 365.800 C 280.659 362.352,279.960 362.218,279.349 365.200 C 277.168 375.829,275.358 380.526,272.556 382.829 C 271.370 383.803,270.300 384.906,270.179 385.280 C 270.058 385.653,269.607 386.071,269.176 386.208 C 268.746 386.344,267.119 387.707,265.562 389.237 C 264.005 390.767,262.162 392.296,261.466 392.636 C 260.770 392.975,259.414 393.683,258.454 394.207 C 257.327 394.823,256.335 395.087,255.654 394.951 C 254.927 394.805,254.130 395.059,253.082 395.770 C 252.247 396.337,251.024 396.800,250.364 396.800 C 249.627 396.800,248.789 397.174,248.195 397.769 C 247.662 398.302,246.862 398.853,246.418 398.994 C 245.974 399.135,245.083 399.779,244.436 400.425 C 243.790 401.071,242.933 401.615,242.531 401.634 C 242.129 401.652,240.765 401.797,239.500 401.955 C 236.924 402.277,236.476 401.901,238.600 401.200 C 239.370 400.946,240.000 400.565,240.000 400.353 C 240.000 400.141,240.713 399.269,241.585 398.415 C 242.456 397.561,243.286 396.398,243.428 395.831 C 243.595 395.166,243.962 394.800,244.463 394.800 C 245.394 394.800,247.600 393.713,247.600 393.254 C 247.600 393.075,248.045 392.726,248.589 392.478 C 249.133 392.230,249.691 391.578,249.829 391.028 C 249.967 390.478,250.407 389.925,250.807 389.798 C 252.169 389.365,253.538 387.993,253.801 386.795 C 253.945 386.138,254.222 385.600,254.415 385.600 C 255.134 385.600,259.187 382.272,259.440 381.473 C 259.585 381.017,260.127 380.184,260.645 379.622 C 262.752 377.334,264.800 374.726,264.800 374.331 C 264.800 374.099,265.256 373.345,265.813 372.655 C 269.698 367.845,270.800 366.392,270.800 366.080 C 270.800 365.884,271.183 365.381,271.651 364.962 C 272.987 363.765,275.158 360.357,274.942 359.794 C 274.646 359.021,270.201 359.056,269.419 359.838 M121.736 364.900 C 120.145 367.453,120.082 378.888,121.634 383.304 C 122.349 385.337,123.257 387.951,123.651 389.114 C 124.939 392.910,129.933 400.680,132.824 403.384 C 133.954 404.441,135.056 405.814,135.273 406.436 C 135.489 407.058,135.967 407.667,136.333 407.788 C 137.152 408.059,139.644 410.440,143.600 414.734 C 145.250 416.525,146.780 417.992,147.000 417.995 C 147.436 418.000,149.193 420.082,149.931 421.467 C 150.185 421.945,150.890 422.445,151.497 422.578 C 152.224 422.739,152.906 423.355,153.498 424.386 C 154.131 425.489,155.104 426.328,156.798 427.231 C 158.119 427.935,159.200 428.666,159.200 428.856 C 159.200 429.045,163.880 429.200,169.600 429.200 C 175.320 429.200,180.000 429.098,180.000 428.974 C 180.000 427.706,179.056 427.200,176.686 427.198 C 173.482 427.195,171.574 426.649,170.401 425.401 C 169.884 424.850,169.222 424.400,168.930 424.400 C 168.639 424.400,168.400 424.136,168.400 423.813 C 168.400 423.479,168.163 423.316,167.852 423.436 C 167.550 423.551,167.202 423.383,167.079 423.061 C 166.955 422.739,166.302 422.354,165.627 422.206 C 164.952 422.058,164.400 421.771,164.400 421.568 C 164.400 421.366,164.080 421.200,163.689 421.200 C 162.433 421.200,160.738 418.890,161.313 417.962 C 161.854 417.089,161.244 416.418,159.900 416.406 C 159.042 416.399,156.000 413.430,156.000 412.600 C 156.000 412.270,155.719 412.000,155.375 412.000 C 153.767 412.000,150.421 409.875,149.994 408.583 C 149.757 407.864,149.217 407.193,148.783 407.080 C 148.352 406.967,148.000 406.604,148.000 406.273 C 148.000 405.882,147.439 405.575,146.400 405.400 C 145.518 405.251,144.800 404.902,144.800 404.623 C 144.800 404.054,143.544 402.680,141.692 401.226 C 141.010 400.690,140.140 399.430,139.760 398.426 C 138.899 396.156,137.332 393.736,136.522 393.425 C 136.043 393.242,136.012 393.067,136.379 392.625 C 136.755 392.172,136.607 391.881,135.628 391.158 C 134.957 390.661,134.290 389.883,134.146 389.428 C 134.002 388.972,132.787 386.980,131.445 385.000 C 128.424 380.540,128.175 380.135,127.380 378.400 C 127.028 377.630,126.409 376.280,126.006 375.400 C 123.504 369.944,122.796 367.957,123.026 367.039 C 123.476 365.246,122.514 363.651,121.736 364.900 M291.889 398.160 C 291.766 399.348,291.827 401.013,292.024 401.860 C 292.220 402.707,292.386 404.300,292.393 405.400 C 292.405 407.432,293.316 409.361,294.300 409.440 C 295.400 409.528,295.600 409.617,295.600 410.019 C 295.600 410.250,295.178 410.835,294.661 411.319 C 294.145 411.804,293.704 412.470,293.680 412.800 C 293.657 413.130,293.515 414.525,293.364 415.900 C 293.184 417.535,293.232 418.400,293.503 418.400 C 293.739 418.400,294.006 419.822,294.123 421.700 C 294.236 423.515,294.461 425.522,294.622 426.159 C 294.840 427.018,294.791 427.241,294.433 427.020 C 293.873 426.674,292.400 427.864,292.400 428.662 C 292.400 429.107,296.646 429.200,316.914 429.200 L 341.428 429.200 342.171 427.942 C 343.055 426.445,345.572 423.799,346.354 423.545 C 346.801 423.399,346.777 423.234,346.232 422.689 C 345.861 422.318,345.482 421.627,345.391 421.154 C 345.199 420.159,342.951 418.021,342.028 417.956 C 341.683 417.931,340.995 417.944,340.500 417.984 C 340.005 418.024,338.565 417.669,337.300 417.195 C 336.035 416.720,334.190 416.287,333.200 416.232 C 330.673 416.092,329.403 415.469,327.420 413.399 C 326.472 412.410,325.514 411.600,325.291 411.600 C 325.068 411.600,324.791 411.353,324.675 411.051 C 324.559 410.748,323.833 410.383,323.061 410.238 C 322.289 410.093,321.588 409.763,321.501 409.504 C 321.415 409.245,320.817 409.012,320.172 408.987 C 319.328 408.953,318.776 408.593,318.200 407.699 C 317.279 406.270,316.405 405.757,314.300 405.411 C 313.434 405.268,312.800 404.937,312.800 404.626 C 312.800 404.331,312.212 403.979,311.493 403.844 C 310.774 403.709,309.514 403.239,308.694 402.799 C 307.874 402.360,306.941 402.000,306.621 402.000 C 306.301 402.000,305.896 401.765,305.720 401.477 C 305.544 401.189,304.230 400.541,302.800 400.036 C 301.370 399.531,299.781 398.853,299.269 398.529 C 298.136 397.813,293.389 396.000,292.647 396.000 C 292.294 396.000,292.036 396.735,291.889 398.160 M106.537 407.398 C 104.391 408.302,102.000 413.570,102.000 417.395 C 102.000 418.403,101.588 419.227,100.395 420.606 C 98.817 422.430,98.768 422.753,99.878 424.050 C 100.466 424.739,98.806 426.854,96.400 428.482 C 95.434 429.135,95.564 429.159,100.239 429.179 L 105.079 429.200 105.748 427.700 C 106.117 426.875,106.664 425.750,106.965 425.200 C 107.600 424.038,108.617 408.314,108.114 407.423 C 107.849 406.953,107.601 406.949,106.537 407.398 M326.000 413.604 C 326.000 413.822,325.449 414.000,324.776 414.000 C 324.103 414.000,323.639 413.860,323.744 413.690 C 324.033 413.224,326.000 413.149,326.000 413.604 M269.120 416.880 C 269.900 417.660,269.677 418.000,268.386 418.000 C 267.296 418.000,267.216 417.918,267.600 417.200 C 268.093 416.279,268.445 416.205,269.120 416.880 M55.483 418.251 C 55.345 418.389,55.494 419.009,55.815 419.629 C 56.347 420.658,56.324 420.882,55.557 422.183 C 55.032 423.073,54.803 423.958,54.949 424.538 C 55.164 425.396,54.906 426.761,54.199 428.500 C 53.939 429.141,54.275 429.200,58.157 429.200 C 60.774 429.200,62.400 429.044,62.400 428.792 C 62.400 428.069,60.406 425.200,59.895 425.188 C 59.623 425.181,59.715 424.992,60.100 424.768 C 61.647 423.867,59.694 420.626,57.900 421.118 C 57.247 421.297,57.654 420.311,58.593 419.441 C 59.140 418.935,59.470 418.403,59.327 418.260 C 58.994 417.927,55.814 417.919,55.483 418.251 M350.177 422.826 C 349.317 423.776,349.724 424.333,351.414 424.518 C 352.066 424.589,352.932 424.834,353.338 425.061 C 354.157 425.520,356.000 425.307,356.000 424.753 C 356.000 424.559,355.384 424.400,354.631 424.400 C 353.647 424.400,352.928 424.067,352.078 423.216 C 350.904 422.043,350.888 422.039,350.177 422.826 M65.456 425.200 C 65.343 425.530,65.190 426.565,65.115 427.500 L 64.979 429.200 71.389 429.165 L 77.800 429.130 75.000 428.387 C 73.460 427.978,71.447 427.634,70.526 427.622 C 68.208 427.592,66.947 427.030,66.253 425.718 C 65.819 424.898,65.607 424.760,65.456 425.200 M330.567 425.843 C 331.532 426.213,331.321 426.800,330.224 426.800 C 329.220 426.800,328.624 426.309,329.078 425.856 C 329.397 425.536,329.760 425.533,330.567 425.843 M277.207 428.192 L 276.261 429.200 277.917 429.200 C 279.456 429.200,279.551 429.137,279.249 428.321 C 278.787 427.071,278.290 427.040,277.207 428.192 " stroke="none" fill="#349425" fill-rule="evenodd"></path></g></svg>